<svg xmlns="http://www.w3.org/2000/svg" xmlns:xlink="http://www.w3.org/1999/xlink" viewBox="0 0 1920 580"><defs><style>.\39 36f9758-50a8-4bfb-9651-4fad8f20ec16{filter:url(#8d96c719-de80-4a6a-ad03-b287e7180a47);}.\36 e27f6e4-bcd0-488d-8f24-f70ac2d551ad{fill:#4d4d4d;}.ec136b1c-2daf-4ffb-8aab-a418d1bfa22d{fill:#354c74;}.f769d38a-e5fc-43ad-b8a9-4de0c22fc34d{fill:none;}.\37 5d0ea3d-24e4-4d63-b0a9-d7b3afb1ea68{fill:gray;}.\32 5a1155c-346e-4f12-828c-d382562c60fa{fill:#e6e6e6;}.fc2bb40a-2259-4b65-ad29-6b97ecabb24f{fill:#f2f2f2;}</style><filter id="8d96c719-de80-4a6a-ad03-b287e7180a47" name="DropShadow"><feGaussianBlur result="blur" stdDeviation="5" in="SourceAlpha"/><feOffset result="offsetBlurredAlpha" dx="2" dy="2" in="blur"/><feComponentTransfer><feFuncA type="linear" slope="0.1"/></feComponentTransfer><feMerge><feMergeNode in="offsetBlurredAlpha"/><feMergeNode in="SourceGraphic"/></feMerge></filter></defs><title>header</title><g id="65efa2f3-988f-4b23-bcde-23e817f1d6e4" data-name="Layer 2"><g class="936f9758-50a8-4bfb-9651-4fad8f20ec16"><rect class="6e27f6e4-bcd0-488d-8f24-f70ac2d551ad" x="40" y="42.85" width="1840" height="494.31"/></g><rect class="ec136b1c-2daf-4ffb-8aab-a418d1bfa22d" x="1075.29" y="125.52" width="383.9" height="280.93" rx="12" ry="12"/><line class="f769d38a-e5fc-43ad-b8a9-4de0c22fc34d" x1="1056.68" y1="265.98" x2="1093.91" y2="300.57"/><path class="75d0ea3d-24e4-4d63-b0a9-d7b3afb1ea68" d="M1098.71,469.06v-5.25h10v-29l-9.43,3.27v-5.7l9.43-3.39h6v34.85h8.92v5.25Z"/><path class="75d0ea3d-24e4-4d63-b0a9-d7b3afb1ea68" d="M1141,469.63q-13.66,0-13.67-20.34,0-20.9,13.67-20.9t13.67,20.9Q1154.68,469.63,1141,469.63Zm0-5.2q7.62,0,7.63-15.14,0-15.69-7.63-15.7t-7.63,15.7Q1133.38,464.44,1141,464.43Zm.23-10.9a4,4,0,0,1-3-1.23,4.12,4.12,0,0,1-1.22-3,4.17,4.17,0,0,1,4.18-4.18,4.11,4.11,0,0,1,3,1.22,4,4,0,0,1,1.23,3,4.2,4.2,0,0,1-4.23,4.24Z"/><path class="25a1155c-346e-4f12-828c-d382562c60fa" d="M159.12,369.46q-29.31,0-45.46-13.31T97.5,318.22Q97.5,290.1,118,275T176.19,260q20.1,0,35.17,4.18V254.6q0-17.74-12.48-26t-37.08-9l-42.53-1.17L122.61,187l35.84.51q44,.66,65.38,19T245.18,260v74l30.14,3.69v28.46l-56.93,1.67-1.68-39.17H213.2Q211.36,349,197,359.25T159.12,369.46ZM164.81,341q15.57,0,25.87-5.7a39.57,39.57,0,0,0,15.49-14.56,35.82,35.82,0,0,0,5.19-18.25V291.77a87,87,0,0,0-18.67-2.93q-9.3-.42-18.84-.42-42.87,0-42.86,26.46Q131,341,164.81,341Z"/><path class="25a1155c-346e-4f12-828c-d382562c60fa" d="M304.16,366.11V188.63h31.47l2.35,22.1h2.68q2-25.46,30.47-25.45,11.22,0,18.67,6.36t10,19.09h2.85a27.94,27.94,0,0,1,8.29-17.92q7.44-7.53,21.51-7.53,18.42,0,26.79,9.88t8.37,32v139H432.08V230.49q0-18.42-13.73-18.42-17.42,0-17.42,24.11V366.11H370.8v-139q0-15.07-14.07-15.07-17.09,0-17.08,24.11V366.11Z"/><path class="25a1155c-346e-4f12-828c-d382562c60fa" d="M514.11,443.13V188.63h32.15l2.85,32.15H553q4.51-35.5,46.88-35.5,34,0,52.49,24.53T670.83,279q0,43.71-18.5,67.06t-52.15,23.36q-20.1,0-32.74-7.79t-14.48-23h-3.35V443.13Zm80.71-227.71q-45.21,0-45.21,50.9v42.86q0,30.13,44.87,30.14,41.19,0,41.19-60.28,0-30.47-10.63-47.05T594.82,215.42Z"/><path class="25a1155c-346e-4f12-828c-d382562c60fa" d="M712.53,366.11V115H748V220.78h3.35q3-35.5,46.88-35.5,28.14,0,43.54,17.08t15.4,48.22V366.11H821.7V250.58q0-16.9-8.37-26t-23.44-9.12q-41.86,0-41.86,50.9v99.79Z"/><path class="25a1155c-346e-4f12-828c-d382562c60fa" d="M899,366.11V337H966.6V218.1H909V188.63h93.09V337h54.59v29.13ZM982.34,160.5a24.87,24.87,0,0,1-24.78-24.78,24.78,24.78,0,1,1,49.56,0,24,24,0,0,1-7.2,17.49A23.77,23.77,0,0,1,982.34,160.5Z"/><path class="fc2bb40a-2259-4b65-ad29-6b97ecabb24f" d="M1093.91,366.11V188.63h32.15l2.85,32.15h3.85q3-35.5,46.88-35.5,28.13,0,43.53,17.08t15.41,48.22V366.11h-35.5V250.58q0-16.08-8.37-24.78t-23.44-8.71q-41.87,0-41.86,49.23v99.79Z"/><path class="fc2bb40a-2259-4b65-ad29-6b97ecabb24f" d="M1376.84,369.46q-45.37,0-70.07-23.86T1282.07,277q0-43.53,20.93-67.64t59.11-24.11q36,0,55.67,21.77t19.67,63.29q0,12.23-1,22.77H1316.56q4.7,22.27,21.1,33.74t43.2,11.47a186.35,186.35,0,0,0,21.77-1.26q10.71-1.26,21.76-3.43l4.36,31.14a234.38,234.38,0,0,1-28.8,3.85Q1386.89,369.46,1376.84,369.46Zm-14.4-153q-20.6,0-32.82,12.89T1315.22,266h90.08q0-23.94-11.38-36.75T1362.44,216.42Z"/><path class="25a1155c-346e-4f12-828c-d382562c60fa" d="M1481,366.11V115h35.49V267h9.71q22.11,0,36.34-7.62t22.35-24.86q8.12-17.25,12-45.88h36.84q-8.2,65.3-40.86,91.59L1645,366.11h-43.87l-41-70.16a109.64,109.64,0,0,1-25.62,2.85h-18.08v67.31Z"/><path class="25a1155c-346e-4f12-828c-d382562c60fa" d="M1744.81,369.46q-36.84,0-57.26-24.11t-20.43-68q0-44,20.43-68.06t57.26-24q37,0,57.35,24t20.34,68.06q0,43.88-20.34,68T1744.81,369.46Zm0-31.81q19.59,0,30.22-15.74t10.63-44.54q0-29-10.63-44.62t-30.22-15.66q-19.59,0-30.22,15.66T1704,277.37q0,28.8,10.64,44.54T1744.81,337.65Z"/></g></svg>